# xmcd CD database file
#
# Track frame offsets:
#	182
#	16610
#	32037
#	43960
#	56727
#	70537
#	86057
#	96605
#	110905
#	126437
#	152932
#	163752
#	181855
#	199430
#	214822
#	231250
#	248795
#	265037
#
# Disc length: 3907 seconds
#
# Revision: 0
# Processed by: cddbd v1.5.2PL0 Copyright (c) Steve Scherf et al.
# Submitted via: CDex 1.51
#
DISCID=0b0f4112
DTITLE=Various Artist - Jazz Memories
DYEAR=1900
DGENRE=Jazz
TTITLE0=Louis Armstrong - Stardust
TTITLE1=Django Reinhart - Body and soul
TTITLE2=Count Basie - Tickle-toe
TTITLE3=Original Dixieland Jazz-band - Palesteena
TTITLE4=Sidney Bechet Tropical mood meringue
TTITLE5=Glenn Miller - Moonlight serenade
TTITLE6=Django Reinhart - I'll see you in my dreams
TTITLE7=Duke Ellington - Three little words
TTITLE8=Chick Webb - If dreams come true
TTITLE9=Armstrong, Reinhart, Basie, Bechet, Miller, Ellington, Webb - Fantasy
TTITLE10=Fats Domino - Blue monday
TTITLE11=Count Basie - Blue five jive
TTITLE12=Duke Ellington - Satin doll
TTITLE13=Miles Davis - Old devil moon
TTITLE14=Nina Simone - My baby just care for me
TTITLE15=Ray Charles - Ruby
TTITLE16=Glenn Miller - In the mood
TTITLE17=Ella Fitzgerald et Louis Armstrong - Isn't this a lovely day
EXTD=
EXTT0=
EXTT1=
EXTT2=
EXTT3=
EXTT4=
EXTT5=
EXTT6=
EXTT7=
EXTT8=
EXTT9=
EXTT10=
EXTT11=
EXTT12=
EXTT13=
EXTT14=
EXTT15=
EXTT16=
EXTT17=
PLAYORDER=
